<?xml version="1.0" encoding="UTF-8"?>
<svg id="uuid-394515bf-c450-4fb3-9fd1-ae0b6d1b7f05" data-name="uuid-d8a43983-0f8c-4e68-8b56-6f22977387df" xmlns="http://www.w3.org/2000/svg" xmlns:xlink="http://www.w3.org/1999/xlink" viewBox="0 0 200.38 32.02">
  <defs>
    <style>
      .uuid-6b7c4a08-bdf4-4d9b-85e5-eb328371fb4a {
        fill: none;
      }

      .uuid-fe0e1793-9cb2-4060-858a-4a50417a5dc0 {
        fill: #ffbc39;
      }

      .uuid-e6ed1fc0-89c7-495b-82d1-497719623c25 {
        fill: #ebf86c;
      }

      .uuid-5fd81258-fe39-453c-ba0e-cbd46c9240a2 {
        fill: #2e2e2e;
      }

      .uuid-e550a0f7-4e11-408f-9a4e-6581a379a563 {
        clip-path: url(#uuid-bbcc11cf-7b31-490a-8d3d-b562c0415ed9);
      }

      .uuid-11712e21-9058-4e6b-9126-c3e67a8c6a5f {
        fill: #f55330;
      }

      .uuid-3e98e870-87c7-4ca9-bae7-442650133963 {
        fill: #800139;
      }
    </style>
    <clipPath id="uuid-bbcc11cf-7b31-490a-8d3d-b562c0415ed9">
      <rect class="uuid-6b7c4a08-bdf4-4d9b-85e5-eb328371fb4a" width="26.86" height="32" rx="8.94" ry="8.94"/>
    </clipPath>
  </defs>
  <g class="uuid-e550a0f7-4e11-408f-9a4e-6581a379a563">
    <g>
      <rect class="uuid-3e98e870-87c7-4ca9-bae7-442650133963" x="20.15" y="16" width="6.72" height="16"/>
      <rect class="uuid-11712e21-9058-4e6b-9126-c3e67a8c6a5f" x="13.43" y="16" width="6.72" height="16"/>
      <rect class="uuid-fe0e1793-9cb2-4060-858a-4a50417a5dc0" x="6.72" y="16" width="6.72" height="16"/>
      <rect class="uuid-e6ed1fc0-89c7-495b-82d1-497719623c25" y="16" width="6.72" height="16"/>
      <rect class="uuid-e6ed1fc0-89c7-495b-82d1-497719623c25" x="20.15" width="6.72" height="16"/>
      <rect class="uuid-fe0e1793-9cb2-4060-858a-4a50417a5dc0" x="13.43" width="6.72" height="16"/>
      <rect class="uuid-11712e21-9058-4e6b-9126-c3e67a8c6a5f" x="6.72" width="6.72" height="16"/>
      <rect class="uuid-3e98e870-87c7-4ca9-bae7-442650133963" width="6.72" height="16"/>
    </g>
  </g>
  <g>
    <path class="uuid-5fd81258-fe39-453c-ba0e-cbd46c9240a2" d="M45.07,30.57c-1.61-.95-2.85-2.3-3.73-4.04-.88-1.74-1.32-3.76-1.32-6.06v-8.94c0-2.29.45-4.31,1.34-6.06.89-1.74,2.15-3.09,3.78-4.04C46.76.48,48.65,0,50.79,0h4.74C57.56,0,59.35.44,60.92,1.32c1.56.88,2.77,2.11,3.62,3.69.85,1.58,1.27,3.4,1.27,5.45h-4.16c0-2-.56-3.6-1.68-4.83-1.12-1.22-2.6-1.83-4.45-1.83h-4.74c-1.94,0-3.51.72-4.72,2.15s-1.81,3.32-1.81,5.68v8.76c0,2.35.58,4.25,1.74,5.68s2.7,2.15,4.6,2.15h4.83c1.91,0,3.43-.68,4.58-2.03,1.15-1.36,1.72-3.14,1.72-5.34h4.16c0,2.21-.43,4.16-1.3,5.85-.86,1.7-2.09,3.01-3.66,3.93-1.58.92-3.41,1.39-5.5,1.39h-4.83c-2.09,0-3.93-.48-5.54-1.43l.02-.02Z"/>
    <path class="uuid-5fd81258-fe39-453c-ba0e-cbd46c9240a2" d="M97.57,29.74c-1.59-1.5-2.39-3.48-2.39-5.92v-6.17c0-2.62.8-4.72,2.39-6.3s3.7-2.37,6.32-2.37h3.67c2.53,0,4.57.77,6.12,2.32,1.55,1.55,2.32,3.61,2.32,6.17v4.2h-16.67v2.15c0,1.37.42,2.47,1.25,3.31.83.83,1.94,1.25,3.31,1.25h3.44c1.34,0,2.43-.35,3.26-1.05s1.25-1.63,1.25-2.79h4.07c0,2.23-.79,4.04-2.37,5.41-1.58,1.37-3.66,2.06-6.26,2.06h-3.4c-2.62,0-4.73-.75-6.32-2.26h0ZM111.85,18.37v-.89c0-1.49-.39-2.68-1.18-3.58s-1.83-1.34-3.11-1.34h-3.67c-1.37,0-2.47.47-3.31,1.41-.83.94-1.25,2.18-1.25,3.73v.67h12.52Z"/>
    <path class="uuid-5fd81258-fe39-453c-ba0e-cbd46c9240a2" d="M122.62,29.7c-1.58-1.53-2.37-3.55-2.37-6.06v-5.99c0-2.62.78-4.72,2.35-6.3,1.56-1.58,3.63-2.37,6.19-2.37h3.62c2.44,0,4.41.69,5.9,2.06,1.49,1.37,2.23,3.19,2.23,5.45h-4.11c0-1.16-.37-2.09-1.1-2.79-.73-.7-1.71-1.05-2.93-1.05h-3.58c-1.31,0-2.38.47-3.2,1.41s-1.23,2.18-1.23,3.73v5.72c0,1.46.42,2.63,1.25,3.51.83.88,1.91,1.32,3.22,1.32h3.58c1.25,0,2.26-.44,3.02-1.32.76-.88,1.14-2.05,1.14-3.51h4.11c0,2.53-.76,4.58-2.28,6.15s-3.52,2.35-5.99,2.35h-3.62c-2.56,0-4.63-.77-6.21-2.3h0Z"/>
    <path class="uuid-5fd81258-fe39-453c-ba0e-cbd46c9240a2" d="M149.05,30.03c-1.09-1.07-1.63-2.8-1.63-5.18v-11.89h-3.93v-3.62h3.98V2.59h4.11v6.75h5.81v3.62h-5.81v11.8c0,1.16.23,2,.69,2.5.46.51,1.21.76,2.26.76h2.86v3.62h-3.04c-2.44,0-4.21-.54-5.3-1.61h0Z"/>
    <path class="uuid-5fd81258-fe39-453c-ba0e-cbd46c9240a2" d="M163.53,29.63c-1.59-1.58-2.39-3.65-2.39-6.21v-5.81c0-2.59.8-4.68,2.41-6.26,1.61-1.58,3.74-2.37,6.39-2.37h3.75c2.65,0,4.78.79,6.39,2.37,1.61,1.58,2.41,3.66,2.41,6.26v5.81c0,2.56-.81,4.63-2.44,6.21-1.62,1.58-3.76,2.37-6.41,2.37h-3.8c-2.62,0-4.73-.79-6.32-2.37h0ZM173.61,28.34c1.43,0,2.58-.46,3.44-1.39.86-.92,1.3-2.16,1.3-3.71v-5.5c0-1.55-.42-2.79-1.27-3.71-.85-.92-1.97-1.39-3.37-1.39h-3.75c-1.4,0-2.53.46-3.37,1.39-.85.92-1.27,2.16-1.27,3.71v5.5c0,1.55.42,2.79,1.25,3.71.83.92,1.95,1.39,3.35,1.39h3.71-.02Z"/>
    <path class="uuid-5fd81258-fe39-453c-ba0e-cbd46c9240a2" d="M187.87,9.34h3.98v3.26c.6-.98,1.47-1.79,2.61-2.41,1.15-.63,2.35-.94,3.6-.94h2.32v3.71h-2.32c-1.82,0-3.28.56-4.38,1.68s-1.65,2.59-1.65,4.4v12.6h-4.16V9.34h0Z"/>
    <path class="uuid-5fd81258-fe39-453c-ba0e-cbd46c9240a2" d="M81.95,26.37L91.2.36h4.42l-11.75,31.28h-3.89L68.23.36h4.42l9.25,26.01h.05Z"/>
  </g>
</svg>